PathFileType	4	(x/y/z)	A01_SLOW_T0029.trc
DataRate	CameraRate	NumFrames	NumMarkers	Units	OrigDataRate	OrigDataStartFrame	OrigNumFrames
240	240	8	48	mm	240	45	357
Frame#	Time	TOP_HEAD			R_AC			L_AC			R_ASIS			L_ASIS			R_PSIS			L_PSIS			SACRAL			L_IC			R_IC			L_GT			R_GT			R_LAT_KNEE			R_MED_KNEE			L_MED_KNEE			L_LAT_KNEE			R_TOE			L_TOE			R_1ST_MET			L_1ST_MET			L_5TH_MET			R_5TH_MET			R_LAT_ANK			R_MED_ANK			L_MED_ANK			L_LAT_ANK			L_HEEL_SUP			R_HEEL_SUP			L_HEEL_LAT			R_HEEL_LAT			L_HEEL_MED			R_HEEL_MED			R_LL_PROX_POST			R_LL_PROX_ANT			R_LL_DIST_ANT			R_LL_DIST_POST			R_THIGH_PROX_POST			R_THIGH_PROX_ANT			R_THIGH_DIST_ANT			R_THIGH_DIST_POST			L_PROS_PROX_ANT			L_PROS_PROX_POST			L_PROS_DIST_POST			L_PROS_DIST_ANT			L_THIGH_PROX_ANT			L_THIGH_PROX_POST			L_THIGH_DIST_POST			L_THIGH_DIST_ANT			
		X1	Y1	Z1	X2	Y2	Z2	X3	Y3	Z3	X4	Y4	Z4	X5	Y5	Z5	X6	Y6	Z6	X7	Y7	Z7	X8	Y8	Z8	X9	Y9	Z9	X10	Y10	Z10	X11	Y11	Z11	X12	Y12	Z12	X13	Y13	Z13	X14	Y14	Z14	X15	Y15	Z15	X16	Y16	Z16	X17	Y17	Z17	X18	Y18	Z18	X19	Y19	Z19	X20	Y20	Z20	X21	Y21	Z21	X22	Y22	Z22	X23	Y23	Z23	X24	Y24	Z24	X25	Y25	Z25	X26	Y26	Z26	X27	Y27	Z27	X28	Y28	Z28	X29	Y29	Z29	X30	Y30	Z30	X31	Y31	Z31	X32	Y32	Z32	X33	Y33	Z33	X34	Y34	Z34	X35	Y35	Z35	X36	Y36	Z36	X37	Y37	Z37	X38	Y38	Z38	X39	Y39	Z39	X40	Y40	Z40	X41	Y41	Z41	X42	Y42	Z42	X43	Y43	Z43	X44	Y44	Z44	X45	Y45	Z45	X46	Y46	Z46	X47	Y47	Z47	X48	Y48	Z48	

45	0.18385	-478.06	1732.9	246.71	-690.54	1536.7	517.01	-764.35	1519.4	63.809	-728.33	1069.2	524.84	-698.88	1013.7	174.22	-936.27	1077.6	382.38	-918.76	1064.3	253.14	-945.67	1042	316.53	-738.46	1127.7	123.77	-738.6	1177.7	520.03	-748.04	928.39	133.24	-813.53	967.06	559.56	-923.08	578.09	500.55	NaN	NaN	NaN	-605.04	567.49	374.03	-626.03	567.29	214.49	-1062.6	61.074	373.63	-343.46	109.64	281.35	-1134	58.412	327.23	-420.76	73.949	335.92	-446.07	60.333	206.76	-1158.8	52.35	463.93	-1190.3	182.98	453.65	-1175.8	196.22	354.37	-560.7	128.63	314.9	-589.37	114.23	247.01	-665.08	64.401	286.37	-1285.8	227.5	391.92	-648.63	37.635	256.03	-1298.2	202.38	423.75	-640.28	37.088	320.11	-1293.7	203.68	362.98	-1092.4	477.58	481.52	-1041.6	433.89	510.49	-1077.1	368.43	491.99	-1120	399.02	472.57	-889.84	841.76	529.42	-819.03	844.2	545.74	-836.43	754.32	538.04	-902.98	753.3	519.95	-563.78	496.14	229.19	-617.02	484.51	217.05	-610.98	422.24	225.85	-561.12	440.07	236.59	-646.31	810.79	183.81	-711.85	794.7	159.09	-681.32	727.02	178.16	-622.01	742.57	200.04
46	0.18803	-472.79	1733	245.71	-685.29	1537.7	515.97	-758.85	1519.4	62.818	-723.24	1069.6	524.54	-694.12	1014.2	173.89	-931.2	1077.9	382.58	-913.85	1064.7	253.3	-940.66	1042.4	316.76	-733.51	1127.9	123.49	-733.2	1178.4	519.56	-743.56	928.94	133.05	-808.25	967.36	559.46	-916.35	577.99	501.55	NaN	NaN	NaN	-600.44	567.76	373.18	-621.69	567.38	213.59	-1061.7	60.626	373.88	-342.84	108.02	281.05	-1132.7	59.533	327.45	-420.3	72.87	335.76	-445.78	59.292	206.56	-1157.9	53.106	464.05	-1186.4	184.59	454.63	-1171.4	197.99	355.46	-559.71	128.41	314.64	-588.66	114.07	246.84	-664.75	64.685	286.38	-1280.5	231.29	392.86	-648.45	37.861	256.04	-1293.6	206.39	424.58	-640.08	37.288	320.11	-1289.2	208.02	363.83	-1086.2	478.82	481.91	-1036	434.81	511.41	-1072	369.58	492.99	-1114.4	400.48	473.12	-884.2	841.62	529.59	-813.36	844.44	545.85	-830.4	754.46	538.48	-896.93	753.08	520.36	-559.97	495.8	228.34	-613.25	484.57	216.23	-607.74	422.25	225.16	-557.69	439.75	235.75	-641.88	811.02	182.9	-707.64	795.09	158.65	-677.16	727.32	177.49	-617.6	742.76	198.96
47	0.19221	-467.57	1733.2	244.72	-680.07	1538.8	514.94	-753.36	1519.5	61.844	-718.15	1070	524.23	-689.35	1014.7	173.54	-926.13	1078.3	382.73	-908.95	1065.2	253.42	-935.64	1042.8	316.95	-728.57	1128.1	123.2	-727.86	1179.3	519.1	-739.08	929.47	132.85	-802.97	967.7	559.34	-909.5	577.87	502.59	NaN	NaN	NaN	-595.91	568.01	372.32	-617.41	567.45	212.68	-1060.8	60.142	374.16	-342.24	106.43	280.74	-1131.3	60.768	327.71	-419.85	71.811	335.61	-445.49	58.273	206.37	-1156.9	53.937	464.19	-1182.4	186.26	455.67	-1166.9	199.81	356.62	-558.73	128.2	314.38	-587.97	113.91	246.66	-664.41	64.965	286.39	-1275	235.16	393.92	-648.26	38.087	256.05	-1288.9	210.48	425.52	-639.87	37.485	320.11	-1284.5	212.47	364.8	-1079.8	480.05	482.39	-1030.2	435.73	512.4	-1066.6	370.74	494.07	-1108.6	401.95	473.76	-878.52	841.5	529.78	-807.66	844.7	545.97	-824.3	754.63	538.94	-890.82	752.86	520.81	-556.22	495.45	227.47	-609.55	484.61	215.39	-604.56	422.24	224.46	-554.32	439.41	234.91	-637.46	811.21	181.95	-703.45	795.46	158.18	-673.05	727.59	176.79	-613.24	742.89	197.85
48	0.19638	-462.39	1733.3	243.74	-674.89	1539.8	513.93	-747.87	1519.6	60.89	-713.07	1070.5	523.91	-684.57	1015.2	173.2	-921.07	1078.6	382.82	-904.06	1065.7	253.48	-930.6	1043.1	317.09	-723.64	1128.3	122.92	-722.58	1180.1	518.66	-734.6	929.97	132.63	-797.67	968.06	559.21	-902.55	577.74	503.68	NaN	NaN	NaN	-591.46	568.23	371.46	-613.21	567.49	211.75	-1059.8	59.619	374.47	-341.65	104.86	280.45	-1129.7	62.115	328.02	-419.4	70.773	335.47	-445.22	57.278	206.19	-1155.9	54.848	464.36	-1178.3	187.99	456.79	-1162.2	201.68	357.84	-557.77	128	314.12	-587.27	113.75	246.49	-664.08	65.243	286.4	-1269.4	239.1	395.11	-648.08	38.31	256.06	-1283.9	214.64	426.57	-639.67	37.68	320.11	-1279.6	217.03	365.9	-1073.3	481.29	482.96	-1024.3	436.65	513.47	-1061.2	371.91	495.22	-1102.8	403.43	474.47	-872.78	841.38	529.99	-801.91	844.98	546.11	-818.14	754.81	539.42	-884.64	752.66	521.29	-552.54	495.08	226.59	-605.93	484.62	214.56	-601.44	422.21	223.76	-551.02	439.05	234.08	-633.06	811.35	180.97	-699.3	795.81	157.7	-668.99	727.84	176.09	-608.91	742.99	196.72
49	0.20056	-457.26	1733.5	242.77	-669.75	1540.9	512.94	-742.4	1519.7	59.954	-708	1071	523.58	-679.76	1015.7	172.85	-916	1078.9	382.87	-899.17	1066.1	253.49	-925.56	1043.4	317.18	-718.7	1128.6	122.63	-717.37	1180.9	518.22	-730.11	930.46	132.41	-792.37	968.46	559.07	-895.48	577.6	504.79	NaN	NaN	NaN	-587.09	568.41	370.6	-609.07	567.5	210.83	-1058.7	59.058	374.81	-341.07	103.32	280.16	-1128.1	63.569	328.39	-418.97	69.758	335.33	-444.96	56.311	206.01	-1154.8	55.847	464.56	-1174.1	189.76	457.97	-1157.5	203.6	359.11	-556.82	127.81	313.86	-586.59	113.6	246.33	-663.74	65.517	286.42	-1263.5	243.1	396.42	-647.9	38.532	256.07	-1278.8	218.87	427.73	-639.47	37.874	320.12	-1274.5	221.67	367.11	-1066.7	482.52	483.61	-1018.2	437.56	514.61	-1055.6	373.07	496.42	-1096.8	404.9	475.27	-866.99	841.26	530.22	-796.11	845.28	546.25	-811.91	755.01	539.93	-878.4	752.45	521.81	-548.93	494.7	225.72	-602.37	484.61	213.73	-598.36	422.17	223.05	-547.79	438.68	233.25	-628.67	811.46	179.97	-695.16	796.13	157.2	-664.97	728.06	175.39	-604.62	743.03	195.57
50	0.20474	-452.17	1733.7	241.82	-664.66	1542	511.96	-736.94	1519.9	59.037	-702.94	1071.5	523.23	-674.93	1016.2	172.5	-910.94	1079.1	382.85	-894.27	1066.5	253.45	-920.51	1043.7	317.22	-713.74	1128.8	122.34	-712.22	1181.8	517.79	-725.6	930.93	132.17	-787.05	968.87	558.91	-888.3	577.45	505.94	NaN	NaN	NaN	-582.8	568.56	369.73	-605	567.5	209.91	-1057.5	58.457	375.18	-340.52	101.81	279.89	-1126.3	65.128	328.81	-418.54	68.771	335.19	-444.71	55.376	205.83	-1153.5	56.939	464.79	-1169.7	191.59	459.21	-1152.6	205.58	360.44	-555.9	127.62	313.6	-585.92	113.45	246.17	-663.42	65.787	286.45	-1257.5	247.17	397.84	-647.72	38.751	256.09	-1273.5	223.17	429	-639.27	38.065	320.13	-1269.2	226.4	368.43	-1059.9	483.73	484.36	-1012	438.45	515.82	-1049.8	374.22	497.67	-1090.6	406.37	476.15	-861.14	841.14	530.48	-790.27	845.58	546.4	-805.61	755.22	540.44	-872.09	752.24	522.35	-545.38	494.31	224.86	-598.88	484.59	212.91	-595.34	422.11	222.35	-544.63	438.29	232.44	-624.3	811.53	178.95	-691.04	796.43	156.69	-660.99	728.25	174.69	-600.36	743.04	194.43
51	0.20892	-447.14	1733.9	240.9	-659.63	1543	511	-731.5	1520.1	58.14	-697.89	1072.1	522.88	-670.09	1016.6	172.14	-905.87	1079.4	382.79	-889.38	1066.9	253.35	-915.46	1044	317.21	-708.76	1129	122.04	-707.14	1182.6	517.37	-721.09	931.37	131.93	-781.73	969.29	558.74	-881.01	577.27	507.1	NaN	NaN	NaN	-578.58	568.69	368.88	-600.98	567.48	209.01	-1056.3	57.813	375.58	-339.98	100.35	279.62	-1124.4	66.786	329.29	-418.13	67.814	335.07	-444.46	54.476	205.67	-1152.2	58.131	465.04	-1165.2	193.48	460.5	-1147.6	207.6	361.82	-555	127.45	313.36	-585.25	113.31	246.02	-663.09	66.053	286.47	-1251.3	251.3	399.38	-647.54	38.968	256.1	-1268	227.52	430.37	-639.07	38.255	320.14	-1263.7	231.21	369.87	-1053	484.93	485.2	-1005.7	439.33	517.08	-1043.9	375.37	498.97	-1084.3	407.82	477.11	-855.25	841.02	530.75	-784.38	845.9	546.56	-799.25	755.43	540.97	-865.71	752.02	522.92	-541.89	493.9	224.02	-595.45	484.55	212.12	-592.37	422.05	221.66	-541.52	437.89	231.66	-619.93	811.57	177.94	-686.94	796.71	156.18	-657.05	728.41	174	-596.14	743.02	193.3
52	0.2131	-442.16	1734.2	239.99	-654.65	1544.1	510.07	-726.08	1520.3	57.262	-692.87	1072.6	522.53	-665.22	1017	171.79	-900.82	1079.6	382.67	-884.49	1067.2	253.19	-910.4	1044.2	317.15	-703.75	1129.3	121.75	-702.14	1183.5	516.96	-716.56	931.8	131.67	-776.39	969.73	558.56	-873.61	577.08	508.28	NaN	NaN	NaN	-574.44	568.78	368.04	-597.02	567.45	208.13	-1055	57.126	376.02	-339.46	98.932	279.37	-1122.4	68.538	329.82	-417.74	66.892	334.94	-444.23	53.616	205.51	-1150.8	59.427	465.33	-1160.6	195.42	461.85	-1142.5	209.67	363.23	-554.12	127.29	313.12	-584.6	113.17	245.88	-662.77	66.314	286.5	-1244.9	255.48	401.02	-647.36	39.18	256.12	-1262.3	231.92	431.85	-638.88	38.444	320.16	-1257.9	236.08	371.42	-1045.9	486.12	486.13	-999.16	440.19	518.4	-1037.8	376.5	500.3	-1077.9	409.27	478.14	-849.29	840.88	531.03	-778.45	846.21	546.71	-792.82	755.65	541.5	-859.27	751.79	523.51	-538.46	493.48	223.2	-592.09	484.5	211.35	-589.45	421.97	220.99	-538.48	437.49	230.9	-615.58	811.59	176.94	-682.84	796.97	155.67	-653.12	728.56	173.33	-591.95	742.96	192.19
